G04 #@! TF.FileFunction,Copper,L2,Bot,Signal*
%FSLAX46Y46*%
G04 Gerber Fmt 4.6, Leading zero omitted, Abs format (unit mm)*
G04 Created by KiCad (PCBNEW 4.0.7) date 03/30/18 23:46:17*
%MOMM*%
%LPD*%
G01*
G04 APERTURE LIST*
%ADD10C,0.100000*%
%ADD11R,1.397000X1.397000*%
%ADD12C,1.397000*%
%ADD13R,1.800000X1.800000*%
%ADD14C,1.800000*%
%ADD15C,0.600000*%
%ADD16C,0.500000*%
%ADD17C,0.250000*%
G04 APERTURE END LIST*
D10*
D11*
X137160000Y-139700000D03*
D12*
X137160000Y-137160000D03*
X137160000Y-134620000D03*
X137160000Y-132080000D03*
X137160000Y-129540000D03*
X137160000Y-127000000D03*
X137160000Y-124460000D03*
X137160000Y-121920000D03*
X137160000Y-119380000D03*
X137160000Y-116840000D03*
X137160000Y-114300000D03*
X137160000Y-111760000D03*
X137160000Y-109220000D03*
X137160000Y-106680000D03*
X137160000Y-104140000D03*
X160020000Y-104140000D03*
X160020000Y-106680000D03*
X160020000Y-109220000D03*
X160020000Y-111760000D03*
X160020000Y-114300000D03*
X160020000Y-116840000D03*
X160020000Y-119380000D03*
X160020000Y-121920000D03*
X160020000Y-124460000D03*
X160020000Y-127000000D03*
X160020000Y-129540000D03*
X160020000Y-132080000D03*
X160020000Y-134620000D03*
X160020000Y-137160000D03*
X160020000Y-139700000D03*
D13*
X147320000Y-105410000D03*
D14*
X144780000Y-105410000D03*
X142240000Y-105410000D03*
D15*
X153342700Y-131514200D03*
X140976700Y-124865900D03*
X142155400Y-131535800D03*
D16*
X158988500Y-137160000D02*
X160020000Y-137160000D01*
X153342700Y-131514200D02*
X158988500Y-137160000D01*
D17*
X138030800Y-121920000D02*
X140976700Y-124865900D01*
X137160000Y-121920000D02*
X138030800Y-121920000D01*
X142155400Y-114215400D02*
X142155400Y-131535800D01*
X137160000Y-109220000D02*
X142155400Y-114215400D01*
X145284200Y-106680000D02*
X137160000Y-106680000D01*
X146094700Y-105869500D02*
X145284200Y-106680000D01*
X146094700Y-105410000D02*
X146094700Y-105869500D01*
X147320000Y-105410000D02*
X146094700Y-105410000D01*
M02*
