G04 #@! TF.FileFunction,Soldermask,Top*
%FSLAX46Y46*%
G04 Gerber Fmt 4.6, Leading zero omitted, Abs format (unit mm)*
G04 Created by KiCad (PCBNEW 4.0.7) date 03/30/18 23:46:17*
%MOMM*%
%LPD*%
G01*
G04 APERTURE LIST*
%ADD10C,0.100000*%
%ADD11R,1.300000X1.600000*%
%ADD12R,3.100000X3.900000*%
%ADD13C,6.100000*%
%ADD14R,2.000000X1.400000*%
%ADD15R,1.200000X1.300000*%
%ADD16R,2.400000X2.100000*%
%ADD17R,1.797000X1.797000*%
%ADD18C,1.797000*%
%ADD19R,2.200000X2.200000*%
%ADD20C,2.200000*%
%ADD21R,2.000000X2.400000*%
G04 APERTURE END LIST*
D10*
D11*
X141860000Y-137160000D03*
X145160000Y-137160000D03*
X151766000Y-131318000D03*
X155066000Y-131318000D03*
D12*
X152320000Y-105410000D03*
X155020000Y-118110000D03*
D13*
X153670000Y-111760000D03*
D14*
X142280000Y-121590000D03*
X142280000Y-124790000D03*
X147280000Y-121590000D03*
X147280000Y-124790000D03*
D15*
X152974000Y-137398000D03*
X154874000Y-137398000D03*
X153924000Y-135398000D03*
D16*
X142780000Y-133350000D03*
X146780000Y-133350000D03*
X142780000Y-129540000D03*
X146780000Y-129540000D03*
D17*
X137160000Y-139700000D03*
D18*
X137160000Y-137160000D03*
X137160000Y-134620000D03*
X137160000Y-132080000D03*
X137160000Y-129540000D03*
X137160000Y-127000000D03*
X137160000Y-124460000D03*
X137160000Y-121920000D03*
X137160000Y-119380000D03*
X137160000Y-116840000D03*
X137160000Y-114300000D03*
X137160000Y-111760000D03*
X137160000Y-109220000D03*
X137160000Y-106680000D03*
X137160000Y-104140000D03*
X160020000Y-104140000D03*
X160020000Y-106680000D03*
X160020000Y-109220000D03*
X160020000Y-111760000D03*
X160020000Y-114300000D03*
X160020000Y-116840000D03*
X160020000Y-119380000D03*
X160020000Y-121920000D03*
X160020000Y-124460000D03*
X160020000Y-127000000D03*
X160020000Y-129540000D03*
X160020000Y-132080000D03*
X160020000Y-134620000D03*
X160020000Y-137160000D03*
X160020000Y-139700000D03*
D19*
X147320000Y-105410000D03*
D20*
X144780000Y-105410000D03*
X142240000Y-105410000D03*
D21*
X154432000Y-123222000D03*
X154432000Y-127222000D03*
M02*
