M48
;DRILL file {KiCad 4.0.7} date 03/30/18 23:46:24
;FORMAT={3:3/ absolute / metric / suppress leading zeros}
FMAT,2
METRIC,TZ
T1C0.400
T2C0.900
T3C0.914
%
G90
G05
M71
T1
X140977Y-124866
X142155Y-131536
X153343Y-131514
T2
X142240Y-105410
X144780Y-105410
X147320Y-105410
T3
X137160Y-104140
X137160Y-106680
X137160Y-109220
X137160Y-111760
X137160Y-114300
X137160Y-116840
X137160Y-119380
X137160Y-121920
X137160Y-124460
X137160Y-127000
X137160Y-129540
X137160Y-132080
X137160Y-134620
X137160Y-137160
X137160Y-139700
X160020Y-104140
X160020Y-106680
X160020Y-109220
X160020Y-111760
X160020Y-114300
X160020Y-116840
X160020Y-119380
X160020Y-121920
X160020Y-124460
X160020Y-127000
X160020Y-129540
X160020Y-132080
X160020Y-134620
X160020Y-137160
X160020Y-139700
T0
M30
