G04 #@! TF.FileFunction,Legend,Bot*
%FSLAX46Y46*%
G04 Gerber Fmt 4.6, Leading zero omitted, Abs format (unit mm)*
G04 Created by KiCad (PCBNEW 4.0.7) date 03/30/18 23:46:17*
%MOMM*%
%LPD*%
G01*
G04 APERTURE LIST*
%ADD10C,0.100000*%
%ADD11C,0.400000*%
%ADD12C,0.200000*%
%ADD13C,1.000000*%
%ADD14C,0.600000*%
%ADD15C,0.150000*%
G04 APERTURE END LIST*
D10*
D11*
X148465714Y-117714286D02*
X148465714Y-118714286D01*
X150037143Y-119142857D02*
X150037143Y-117714286D01*
X147037143Y-117714286D01*
X147037143Y-119142857D01*
X149894286Y-120285715D02*
X150037143Y-120714286D01*
X150037143Y-121428572D01*
X149894286Y-121714286D01*
X149751429Y-121857143D01*
X149465714Y-122000000D01*
X149180000Y-122000000D01*
X148894286Y-121857143D01*
X148751429Y-121714286D01*
X148608571Y-121428572D01*
X148465714Y-120857143D01*
X148322857Y-120571429D01*
X148180000Y-120428572D01*
X147894286Y-120285715D01*
X147608571Y-120285715D01*
X147322857Y-120428572D01*
X147180000Y-120571429D01*
X147037143Y-120857143D01*
X147037143Y-121571429D01*
X147180000Y-122000000D01*
X150037143Y-123285715D02*
X147037143Y-123285715D01*
X147037143Y-124428572D01*
X147180000Y-124714286D01*
X147322857Y-124857143D01*
X147608571Y-125000000D01*
X148037143Y-125000000D01*
X148322857Y-124857143D01*
X148465714Y-124714286D01*
X148608571Y-124428572D01*
X148608571Y-123285715D01*
X148322857Y-126714286D02*
X148180000Y-126428572D01*
X148037143Y-126285715D01*
X147751429Y-126142858D01*
X147608571Y-126142858D01*
X147322857Y-126285715D01*
X147180000Y-126428572D01*
X147037143Y-126714286D01*
X147037143Y-127285715D01*
X147180000Y-127571429D01*
X147322857Y-127714286D01*
X147608571Y-127857143D01*
X147751429Y-127857143D01*
X148037143Y-127714286D01*
X148180000Y-127571429D01*
X148322857Y-127285715D01*
X148322857Y-126714286D01*
X148465714Y-126428572D01*
X148608571Y-126285715D01*
X148894286Y-126142858D01*
X149465714Y-126142858D01*
X149751429Y-126285715D01*
X149894286Y-126428572D01*
X150037143Y-126714286D01*
X150037143Y-127285715D01*
X149894286Y-127571429D01*
X149751429Y-127714286D01*
X149465714Y-127857143D01*
X148894286Y-127857143D01*
X148608571Y-127714286D01*
X148465714Y-127571429D01*
X148322857Y-127285715D01*
X147322857Y-129000001D02*
X147180000Y-129142858D01*
X147037143Y-129428572D01*
X147037143Y-130142858D01*
X147180000Y-130428572D01*
X147322857Y-130571429D01*
X147608571Y-130714286D01*
X147894286Y-130714286D01*
X148322857Y-130571429D01*
X150037143Y-128857143D01*
X150037143Y-130714286D01*
X147037143Y-133285715D02*
X147037143Y-132714286D01*
X147180000Y-132428572D01*
X147322857Y-132285715D01*
X147751429Y-132000001D01*
X148322857Y-131857144D01*
X149465714Y-131857144D01*
X149751429Y-132000001D01*
X149894286Y-132142858D01*
X150037143Y-132428572D01*
X150037143Y-133000001D01*
X149894286Y-133285715D01*
X149751429Y-133428572D01*
X149465714Y-133571429D01*
X148751429Y-133571429D01*
X148465714Y-133428572D01*
X148322857Y-133285715D01*
X148180000Y-133000001D01*
X148180000Y-132428572D01*
X148322857Y-132142858D01*
X148465714Y-132000001D01*
X148751429Y-131857144D01*
X147037143Y-136142858D02*
X147037143Y-135571429D01*
X147180000Y-135285715D01*
X147322857Y-135142858D01*
X147751429Y-134857144D01*
X148322857Y-134714287D01*
X149465714Y-134714287D01*
X149751429Y-134857144D01*
X149894286Y-135000001D01*
X150037143Y-135285715D01*
X150037143Y-135857144D01*
X149894286Y-136142858D01*
X149751429Y-136285715D01*
X149465714Y-136428572D01*
X148751429Y-136428572D01*
X148465714Y-136285715D01*
X148322857Y-136142858D01*
X148180000Y-135857144D01*
X148180000Y-135285715D01*
X148322857Y-135000001D01*
X148465714Y-134857144D01*
X148751429Y-134714287D01*
X154937143Y-119642858D02*
X151937143Y-119642858D01*
X154937143Y-122785714D02*
X153508571Y-121785714D01*
X154937143Y-121071429D02*
X151937143Y-121071429D01*
X151937143Y-122214286D01*
X152080000Y-122500000D01*
X152222857Y-122642857D01*
X152508571Y-122785714D01*
X152937143Y-122785714D01*
X153222857Y-122642857D01*
X153365714Y-122500000D01*
X153508571Y-122214286D01*
X153508571Y-121071429D01*
X152937143Y-126071428D02*
X154937143Y-126785714D01*
X152937143Y-127500000D01*
X154937143Y-130214285D02*
X154937143Y-128500000D01*
X154937143Y-129357142D02*
X151937143Y-129357142D01*
X152365714Y-129071428D01*
X152651429Y-128785714D01*
X152794286Y-128500000D01*
X154651429Y-131500000D02*
X154794286Y-131642857D01*
X154937143Y-131500000D01*
X154794286Y-131357143D01*
X154651429Y-131500000D01*
X154937143Y-131500000D01*
X151937143Y-133499999D02*
X151937143Y-133785714D01*
X152080000Y-134071428D01*
X152222857Y-134214285D01*
X152508571Y-134357142D01*
X153080000Y-134499999D01*
X153794286Y-134499999D01*
X154365714Y-134357142D01*
X154651429Y-134214285D01*
X154794286Y-134071428D01*
X154937143Y-133785714D01*
X154937143Y-133499999D01*
X154794286Y-133214285D01*
X154651429Y-133071428D01*
X154365714Y-132928571D01*
X153794286Y-132785714D01*
X153080000Y-132785714D01*
X152508571Y-132928571D01*
X152222857Y-133071428D01*
X152080000Y-133214285D01*
X151937143Y-133499999D01*
D12*
X156210000Y-111760000D02*
X151130000Y-116840000D01*
X151130000Y-106680000D02*
X156210000Y-111760000D01*
X146050000Y-111760000D02*
X151130000Y-106680000D01*
X151130000Y-116840000D02*
X146050000Y-111760000D01*
D13*
X151130000Y-115570000D02*
X151130000Y-107950000D01*
D14*
X153670000Y-111760000D02*
G75*
G03X153670000Y-111760000I-2540000J0D01*
G01*
D15*
X141731905Y-139152381D02*
X141731905Y-139961905D01*
X141684286Y-140057143D01*
X141636667Y-140104762D01*
X141541429Y-140152381D01*
X141350952Y-140152381D01*
X141255714Y-140104762D01*
X141208095Y-140057143D01*
X141160476Y-139961905D01*
X141160476Y-139152381D01*
X140160476Y-140152381D02*
X140731905Y-140152381D01*
X140446191Y-140152381D02*
X140446191Y-139152381D01*
X140541429Y-139295238D01*
X140636667Y-139390476D01*
X140731905Y-139438095D01*
M02*
